<?xml version="1.0" encoding="utf-8"?>
<!-- Generator: Adobe Illustrator 15.1.0, SVG Export Plug-In . SVG Version: 6.00 Build 0)  -->
<!DOCTYPE svg PUBLIC "-//W3C//DTD SVG 1.1//EN" "http://www.w3.org/Graphics/SVG/1.1/DTD/svg11.dtd">
<svg version="1.1" id="レイヤー_1" xmlns="http://www.w3.org/2000/svg" xmlns:xlink="http://www.w3.org/1999/xlink" x="0px"
	 y="0px" width="780px" height="182px" viewBox="0 0 780 182" enable-background="new 0 0 780 182" xml:space="preserve">
<g>
	<g>
		<path fill="#333333" d="M1,4.017h31.867c24.935,0,37.404,15.481,37.404,46.444c0,11.828-1.622,20.606-4.859,26.33
			c-3.24,5.725-8.967,10.057-17.177,12.995c9.417,3.767,15.858,8.588,19.323,14.464c3.541,5.801,5.312,14.54,5.312,26.217
			c0,32.017-13.713,48.025-41.133,48.025H1V4.017z M23.036,80.858c9.156,0,15.514-2.109,19.072-6.328
			c3.556-4.445,5.336-12.242,5.336-23.392c0-18.832-6.812-28.25-20.436-28.25h-1.814H24.17c-0.604,0-0.982,0.039-1.134,0.113V80.858
			z M23.036,158.378c9.685,0,16.382-2.072,20.089-6.216c3.708-4.143,5.562-11.639,5.562-22.487c0-11.15-1.93-18.947-5.788-23.392
			c-3.786-4.52-10.406-6.78-19.863-6.78V158.378z"/>
		<path fill="#333333" d="M183.612,95.548c0,30.812-3.43,52.697-10.283,65.654c-6.855,12.958-18.346,19.436-34.466,19.436
			c-16.95,0-28.891-6.968-35.822-20.905c-6.855-13.636-10.283-37.856-10.283-72.661c0-31.036,3.39-52.998,10.17-65.88
			c6.854-12.956,18.457-19.437,34.805-19.437c14.615,0,25.463,5.011,32.544,15.029c4.671,6.707,8.061,16.235,10.17,28.589
			C182.555,56.828,183.612,73.55,183.612,95.548z M158.977,98.035c0-30.209-1.356-50.247-4.068-60.117
			c-2.712-9.945-8.25-14.917-16.611-14.917c-8.362,0-13.938,4.56-16.724,13.673c-2.712,9.192-4.068,27.648-4.068,55.371
			c0,25.539,1.43,43.242,4.294,53.111c2.938,9.341,8.436,14.013,16.499,14.013c7.91,0,13.334-4.37,16.272-13.109
			C157.508,137.396,158.977,121.388,158.977,98.035z"/>
		<path fill="#333333" d="M206.89,4.017h23.504v154.587h38.42v19.888H206.89V4.017z"/>
		<path fill="#333333" d="M269.606,4.017h76.503v20.566h-26.33v153.909h-23.053V24.583h-27.121V4.017z"/>
		<path fill="#333333" d="M520.867,4.017h30.962c12.808,0,22.337,3.051,28.59,9.153c7.91,7.91,11.865,20.001,11.865,36.273
			c0,12.505-2.091,22.544-6.271,30.115c-4.182,7.571-10.151,12.261-17.911,14.068l32.093,84.865h-23.844l-31.979-85.43v85.43
			h-23.504V4.017z M544.371,81.31c9.115,0,15.557-2.109,19.323-6.328s5.65-11.338,5.65-21.357c0-5.424-0.396-10.057-1.187-13.899
			c-0.791-3.843-2.034-6.967-3.729-9.38c-1.694-2.411-3.879-4.181-6.554-5.311c-2.675-1.13-5.857-1.695-9.549-1.695h-3.955V81.31z"
			/>
		<path fill="#333333" d="M618.388,4.017h30.963c14.916,0,25.765,3.768,32.544,11.3c6.78,7.61,10.171,19.663,10.171,36.161
			c0,23.203-6.818,38.194-20.454,44.975c-6.855,3.088-16.762,4.633-29.719,4.633v77.406h-23.505V4.017z M641.893,80.971
			c9.718,0,16.423-1.958,20.114-5.875c3.767-3.993,5.649-11.074,5.649-21.245c0-10.396-1.808-18.005-5.424-22.826
			c-3.616-4.82-9.304-7.232-17.063-7.232h-3.276V80.971z"/>
		<path fill="#333333" d="M778.625,6.842v21.131c-6.027-2.938-11.074-4.407-15.143-4.407c-5.574,0-10.358,1.375-14.352,4.125
			c-3.992,2.751-7.288,6.989-9.888,12.713c-2.599,5.725-4.52,12.978-5.763,21.753c-1.243,8.776-1.864,19.154-1.864,31.132
			c0,43.091,11.036,64.637,33.109,64.637c3.842,0,8.476-1.205,13.899-3.616v21.583c-5.65,3.164-11.979,4.746-18.984,4.746
			c-35.332,0-52.998-28.853-52.998-86.559c0-31.189,4.312-54.392,12.938-69.61c8.626-15.216,21.828-22.826,39.607-22.826
			C765.742,1.644,772.222,3.378,778.625,6.842z"/>
	</g>
	<polygon fill="#333333" points="458.908,68.519 420.234,173.158 405.573,181 438.613,91.807 398.092,113.51 436.779,8.753 
		451.284,1 418.318,90.203 	"/>
</g>
</svg>
