<?xml version="1.0" encoding="utf-8"?>
<!-- Generator: Adobe Illustrator 15.1.0, SVG Export Plug-In . SVG Version: 6.00 Build 0)  -->
<!DOCTYPE svg PUBLIC "-//W3C//DTD SVG 1.1//EN" "http://www.w3.org/Graphics/SVG/1.1/DTD/svg11.dtd">
<svg version="1.1" id="レイヤー_1" xmlns="http://www.w3.org/2000/svg" xmlns:xlink="http://www.w3.org/1999/xlink" x="0px"
	 y="0px" width="278px" height="62px" viewBox="0 0 278 62" enable-background="new 0 0 278 62" xml:space="preserve">
<g>
	<g>
		<polygon fill-rule="evenodd" clip-rule="evenodd" fill="#BD0022" points="27.255,8.501 38.504,19.746 38.506,19.742 
			38.504,19.746 31.002,27.249 34.754,31 46.005,19.746 27.257,1 1,27.255 34.745,61 38.495,57.252 8.499,27.255 		"/>
		<polygon fill-rule="evenodd" clip-rule="evenodd" fill="#BD0022" points="42.312,1.042 38.562,4.792 53.558,19.785 34.798,38.544 
			23.507,27.255 31.009,19.754 27.255,15.999 15.999,27.255 46.005,57.258 49.755,53.5 38.548,42.294 57.311,23.544 68.563,34.794 
			72.318,31.044 		"/>
	</g>
	<g>
		<path d="M102.301,37.187v18.438h-7.609V10.226h8.625c4.225,0,7.415,0.261,9.572,0.792c2.179,0.528,4.096,1.528,5.749,2.998
			c2.897,2.549,4.345,5.763,4.345,9.645c0,4.156-1.547,7.447-4.638,9.878c-3.093,2.432-7.265,3.647-12.512,3.647H102.301z
			 M102.301,30.836h2.844c6.993,0,10.488-2.418,10.488-7.262c0-4.684-3.605-7.028-10.815-7.028h-2.517V30.836z"/>
		<path d="M139.774,10.226v38.958h14.834v6.44h-22.446V10.226H139.774z"/>
		<path d="M195.604,44.596h-21.592l-5.622,11.028h-8.199l3.818-7.38l8.748-16.91l9.797-18.942l2.596-5.02l2.778,5.565l9.224,18.487
			l8.618,17.266l3.46,6.934h-8.328L195.604,44.596z M192.504,38.16l-7.48-15.439l-7.842,15.439H192.504z"/>
		<path d="M224.488,10.226v22.909v22.489h-7.614V32.982V10.226H224.488z"/>
		<path d="M237.943,55.624V32.326v-22.1h3.039h4.817h2.729c5.073,0,9.082,0.453,12.023,1.353c3.16,0.882,6.021,2.38,8.592,4.495
			c2.7,2.218,4.697,4.796,5.998,7.734c1.207,2.726,1.812,5.769,1.812,9.118c-0.003,2.679-0.403,5.159-1.199,7.441
			c-1.284,3.675-3.596,6.836-6.938,9.495c-2.72,2.158-5.576,3.652-8.56,4.497c-2.785,0.842-6.738,1.265-11.86,1.265H237.943z
			 M245.556,49.184h3.431c1.97,0,3.744-0.107,5.329-0.32c1.172-0.158,2.236-0.373,3.198-0.646c1.092-0.332,2.131-0.757,3.123-1.274
			c1.062-0.557,2.07-1.221,3.02-1.995c1.873-1.537,3.279-3.308,4.214-5.31c0.938-2.005,1.406-4.241,1.406-6.712
			c0-3.238-0.784-6.078-2.351-8.52c-0.843-1.314-1.912-2.513-3.206-3.593c-0.688-0.574-1.445-1.087-2.275-1.543
			c-0.947-0.521-1.979-0.965-3.105-1.329c-1.511-0.491-3.184-0.839-5.02-1.048c-1.353-0.151-2.8-0.231-4.333-0.231h-3.431v15.664
			V49.184z"/>
	</g>
</g>
</svg>
